<svg width="23" height="26" fill="none" xmlns="http://www.w3.org/2000/svg"><g clip-path="url(#clip0)"><g clip-path="url(#clip1)" fill="#CB1211"><path d="M11.272 23.34v-9.52a.816.816 0 00-.244-.581.84.84 0 00-1.18 0 .815.815 0 00-.243.58v9.522c0 .218.087.427.244.581a.84.84 0 001.179 0 .816.816 0 00.244-.58z"/><path d="M10.488 14.303h4.286a.84.84 0 00.59-.24.815.815 0 000-1.162.84.84 0 00-.59-.24h-4.286a.84.84 0 00-.59.24.815.815 0 000 1.162.84.84 0 00.59.24zm-4.235 9.719V13.736a.816.816 0 00-.245-.58.84.84 0 00-1.179 0 .816.816 0 00-.244.58v10.286c0 .218.088.427.244.581a.84.84 0 001.18 0 .816.816 0 00.244-.58z"/><path d="M5.344 12.833H2.842a.84.84 0 00-.59.24.815.815 0 000 1.162.84.84 0 00.59.24h2.502a.84.84 0 00.59-.24.816.816 0 000-1.162.84.84 0 00-.59-.24z"/><path d="M3.668 13.654v-4.46a.815.815 0 00-.245-.582.84.84 0 00-1.179 0A.815.815 0 002 9.193v4.461c0 .218.088.427.244.581a.84.84 0 001.18 0 .815.815 0 00.244-.58z"/><path d="M5.485 8.372h-2.41a.84.84 0 00-.589.24.815.815 0 000 1.162.84.84 0 00.59.24h2.41a.84.84 0 00.589-.24.815.815 0 000-1.162.84.84 0 00-.59-.24zM15.65 13.26l-.16-3.83c-.05-1.051-1.717-1.06-1.667 0l.2 3.829c.058 1.052 1.726 1.06 1.668 0h-.042z"/><path d="M14.166 8.552h-3.728a.84.84 0 00-.59.241.815.815 0 000 1.162.84.84 0 00.59.24h3.728a.84.84 0 00.59-.24.816.816 0 000-1.162.84.84 0 00-.59-.24zM6.32 9.16c-.251-2.127-.493-4.929 1.45-6.383 1.56-1.191 5.278-1.643 6.812-.222.776.731 1.96-.427 1.184-1.167C13.757-.502 9.93-.255 7.587.92c-3.11 1.553-3.285 5.258-2.934 8.216.125 1.043 1.792 1.051 1.667 0v.024z"/><path d="M11.239 9.44a35.27 35.27 0 00.083-3.985c0-1.051-1.667-1.06-1.667 0A35.27 35.27 0 019.58 9.44c-.084 1.051 1.584 1.051 1.667 0h-.008z"/><path d="M10.58 6.195h4.586a.84.84 0 00.59-.241.816.816 0 000-1.162.84.84 0 00-.59-.24H10.58a.84.84 0 00-.59.24.815.815 0 000 1.162.84.84 0 00.59.24z"/><path d="M14.332 2.358v2.465c0 .217.088.426.245.58a.84.84 0 001.179 0 .816.816 0 00.244-.58V2.358a.816.816 0 00-.244-.581.84.84 0 00-1.18 0 .815.815 0 00-.244.58z"/></g></g><path d="M5.485 25.643h5.003a.84.84 0 00.59-.24.815.815 0 000-1.162.84.84 0 00-.59-.241H5.485a.84.84 0 00-.59.24.816.816 0 000 1.163.84.84 0 00.59.24z" fill="#CB1211"/><defs><clipPath id="clip0"><path fill="#fff" d="M0 0h23v26H0z"/></clipPath><clipPath id="clip1"><path fill="#fff" transform="translate(2)" d="M0 0h14v28H0z"/></clipPath></defs></svg>