<svg width="25" height="25" fill="none" xmlns="http://www.w3.org/2000/svg"><g clip-path="url(#clip0)" fill="#CB1211"><path d="M.041 6.322V19.24c0 .273.11.535.304.728a1.038 1.038 0 001.463 0c.195-.193.304-.455.304-.728V6.322c0-.273-.11-.534-.304-.727a1.038 1.038 0 00-1.463 0 1.025 1.025 0 00-.304.727zm5.866 18.664h13.745c.275 0 .538-.108.732-.301a1.025 1.025 0 000-1.455 1.039 1.039 0 00-.732-.3H5.907a1.04 1.04 0 00-.732.3 1.025 1.025 0 000 1.455c.194.193.457.301.732.301zM22.93 6.014c0 4.333-.083 8.66-.09 13.027 0 .273.11.535.303.728a1.038 1.038 0 001.464 0c.194-.193.303-.455.303-.727 0-4.334.083-8.66.09-12.994 0-.273-.109-.535-.303-.727a1.038 1.038 0 00-1.464 0 1.025 1.025 0 00-.303.727v-.034z"/><path d="M2.112 6.356v-.864c0-.272-.11-.534-.304-.727a1.038 1.038 0 00-1.463 0 1.025 1.025 0 00-.304.727v.864c0 .273.11.535.304.728a1.038 1.038 0 001.463 0c.195-.193.304-.455.304-.728zm3.484-4.299c4.347 0 8.695 0 13.042.034.274 0 .538-.108.732-.301a1.025 1.025 0 000-1.455 1.038 1.038 0 00-.732-.3H5.596c-.274 0-.538.108-.732.3a1.025 1.025 0 000 1.455c.194.193.458.301.732.301v-.034z"/><path d="M24.993 5.828c-.041-1.748-1.38-3.277-2.656-4.381a5.791 5.791 0 00-4.03-1.413c-1.332 0-1.332 2.057 0 2.057a3.555 3.555 0 012.56.802c.807.686 2.029 1.818 2.07 2.922 0 1.323 2.07 1.323 2.07 0l-.014.013zM2.05 5.636c.262-1.7 1.683-3.524 3.546-3.572 1.325 0 1.332-2.057 0-2.057C2.836.075.462 2.462.076 5.087c-.2 1.297 1.794 1.852 1.994.55h-.02zM5.817 22.93c-2.07-.24-3.85-1.79-3.74-4.026.062-1.323-2.008-1.323-2.07 0a6.491 6.491 0 001.69 4.306 6.23 6.23 0 004.14 1.776c1.326.158 1.312-1.899 0-2.057h-.02zm13.835 2.063c2.816-.226 5.175-3.312 5.258-5.986.042-1.323-2.028-1.323-2.07 0a4.271 4.271 0 01-1.07 2.517c-.462.52-1.38 1.371-2.118 1.412-1.318.103-1.332 2.167 0 2.057zM7.425 7.131c-2.574 2.304-2.174 7.303.048 9.723 2.519 2.743 6.852 2.743 9.66.425 2.81-2.317 2.92-7.22.297-9.798-2.946-2.88-6.9-2.798-10.005-.35-1.042.823.435 2.27 1.463 1.454 5.058-4.005 11.896 3.51 6.597 7.343a4.9 4.9 0 01-6.549-.528c-1.421-1.625-1.76-5.28-.048-6.815.993-.892-.476-2.338-1.463-1.454z"/><path d="M18.507 4.78l-.062.363a1.056 1.056 0 00.549 1.184c.14.072.294.112.451.118a1.38 1.38 0 00.835-.227 1.372 1.372 0 00.558-1.536 1.371 1.371 0 00-.496-.705 1.387 1.387 0 00-1.449 0 1.508 1.508 0 00-.545 1.66 1.02 1.02 0 00.69.72l.228.054a1.041 1.041 0 001.117-.344 1.026 1.026 0 00-.565-1.638l-.228-.061.69.72a.505.505 0 01-.034.301l-.373.37c-.745.206-.932 0-.552-.685.324-.439.345-.686.062-.686l1 1.303.056-.363a1.057 1.057 0 00-.69-1.269 1.048 1.048 0 00-.784.102 1.036 1.036 0 00-.486.618h.028z"/></g><defs><clipPath id="clip0"><path fill="#fff" d="M0 0h25v25H0z"/></clipPath></defs></svg>