<svg width="20" height="25" fill="none" xmlns="http://www.w3.org/2000/svg"><g clip-path="url(#clip0)" fill="#FFFEFA"><path d="M9.018 4.206A16.196 16.196 0 006.128.305c-.754-.751-1.942.38-1.21 1.153a14.475 14.475 0 012.62 3.575c.486.94 1.965.114 1.48-.827zM5.186 16.42C2.473 13.335.816 8.096 2.284 4.233c.377-.99-1.279-1.415-1.65-.435C-1.08 8.275.85 14.03 3.974 17.562c.715.806 1.92-.353 1.212-1.153v.01z"/><path d="M2.284 4.233a3.994 3.994 0 011.143-1.698c.234-.211.495-.394.776-.544.086-.044.834-.419.92-.36.873.643 1.713-.772.862-1.408-.85-.637-2.479.196-3.238.723A5.807 5.807 0 00.634 3.797c-.36.996 1.296 1.426 1.65.436zM17.67 22.557c-5.489 2.97-9.915-2.807-12.702-6.42-.645-.832-2.13 0-1.479.827 3.427 4.407 8.567 10.484 15.043 7.002a.82.82 0 00.374-.496.783.783 0 00-.092-.604.851.851 0 00-.507-.375.894.894 0 00-.637.066z"/><path d="M18.71 23.841c.47-.377.834-.86 1.062-1.404a5.2 5.2 0 00.222-1.327.808.808 0 00-.254-.574.89.89 0 00-.602-.242.902.902 0 00-.6.245.82.82 0 00-.257.57 1.89 1.89 0 01-.2.878 1.984 1.984 0 01-.588.7c-.817.703.394 1.856 1.216 1.154z"/><path d="M19.903 20.62a15.264 15.264 0 00-1.713-3.15 3.064 3.064 0 00-1.548-1.3c-1.034-.256-1.508 1.338-.463 1.578 0 0 .046 0 .212.185.208.202.394.424.554.663.514.776.952 1.596 1.307 2.449.417.963 2.074.544 1.65-.43v.005z"/><path d="M17.179 16.382a3.898 3.898 0 00-1.779-.452 3.904 3.904 0 00-1.79.408c-1.08.48-1.925 1.371-3.273.762-.662-.3-1.496-1.692-1.964-2.236-.697-.816-1.902.343-1.211 1.153.954 1.116 2.021 2.89 3.66 3.129 2.022.293 3.496-2.34 5.489-1.355.976.479 1.845-.925.868-1.41z"/><path d="M7.453 4.837C8.27 7.1 4.9 7.813 4.597 9.89c-.308 2.176 1.411 4.521 2.587 6.23.572.876 2.085.054 1.48-.827a17.885 17.885 0 01-1.85-3.112c-.378-.898-.64-2.079.05-2.955.434-.374.9-.713 1.394-1.012 1.28-1.088 1.382-2.312.845-3.808-.36-.99-2.016-.544-1.656.435l.006-.005z"/></g><defs><clipPath id="clip0"><path fill="#fff" d="M0 0h20v25H0z"/></clipPath></defs></svg>