<svg width="403" height="289" fill="none" xmlns="http://www.w3.org/2000/svg"><path d="M113.148 22.755C81.374-18.763-5.275 79.293 13.962 100.932 38.01 127.98 200.007-1.474 217.02 16.532c5.217 5.522-131.163 93.764-194.933 166.809-2.605 2.983.358 7.233 4.108 5.96 96.925-32.921 202.421-84.167 212.511-101.087 36.018-60.404 69.387-107.639-1.839-37.055-87.781 86.99-95.275 133.921-116.45 163.733-21.175 29.813-44.076 79.921 8.124 44.016 52.201-35.904 37.118-31.215 72.164-61.328 82.467-70.859 171.166-185.444 85.308-161.63C200.155 59.762 115.39 255.4 156.216 236.938c40.826-18.462 232.285-125.599 238.171-94.767 4.864 25.475-258.275 155.373-236.031 124.956C180.6 236.71 371.347 149.225 347.409 224.22" stroke="#FFFEFA" stroke-width="3" stroke-linecap="round"/></svg>