<svg width="755" height="970" fill="none" xmlns="http://www.w3.org/2000/svg"><path d="M786.78 52.497c70.812-166.724-384.04-109.382-416.187-16.916-40.182 115.583 644.997 138.925 620.032 217.958-7.914 25.058-556.212-50.519-891.976 3.563-3.868.623-4.476 5.781-.915 7.414C374.47 391.448 737.495 492.966 809.36 472.374c249.321-71.442 453.541-116.482 110.372-93.625C496.8 406.92 339.539 505.06 210.443 533.25 81.347 561.439-113.065 635.221 89.901 656.822c202.966 21.601 161.758 1.582 316.448 1.524 364.006-.136 873.201-93.269 647.451-214.2C828.045 323.215 77.267 620.959 206.507 661.162c129.239 40.204 798.373 178.927 714.285 265.893-69.479 71.857-935.92-160.85-803.067-188.28 132.854-27.43 740.45 157.438 467.869 289.375" stroke="#FFFEFA" stroke-width="3" stroke-linecap="round"/></svg>