<svg width="20" height="20" fill="none" xmlns="http://www.w3.org/2000/svg"><path d="M10 0C4.486 0 0 4.39 0 9.787c0 5.396 4.486 9.787 10 9.787s10-4.39 10-9.787C20 4.39 15.514 0 10 0zm0 17.491c-4.34 0-7.872-3.456-7.872-7.704 0-4.249 3.531-7.705 7.872-7.705 4.34 0 7.872 3.456 7.872 7.705 0 4.248-3.531 7.704-7.872 7.704z" fill="#FFFEFA"/><path d="M15.212 9.484h-4.494V4.196a.815.815 0 00-.824-.806.815.815 0 00-.823.806v6.094c0 .445.368.806.823.806h5.318c.454 0 .823-.36.823-.806a.815.815 0 00-.823-.806z" fill="#FFFEFA"/></svg>