<svg width="457" height="347" fill="none" xmlns="http://www.w3.org/2000/svg"><path d="M303.305 308.607c27.217 46.483 132.25-37.675 115.261-62.326-21.235-30.814-209.748 72.749-224.936 52.077-4.661-6.344 151.214-72.903 228.593-135.753 3.086-2.507.86-7.212-3.063-6.568-106.428 17.478-224.731 52.006-237.784 67.323-46.526 54.594-88.355 96.461-3.479 37.284 104.605-72.933 119.296-118.597 145.817-145.003 26.52-26.406 57.809-72.8-2.088-45.23-59.897 27.572-43.42 25.281-84.509 49.789-96.687 57.671-206.278 158.006-112.9 147.839 93.377-10.166 210.668-192.041 165.226-180.08C244 99.919 27.893 176.534 26.226 144.82c-1.378-26.204 293.108-114.18 265.379-87.34C263.876 84.321 51.38 141.43 87.384 70.355" stroke="#FFFEFA" stroke-width="3" stroke-linecap="round"/></svg>