<svg width="25" height="25" fill="none" xmlns="http://www.w3.org/2000/svg"><g clip-path="url(#clip0)" fill="#CB1211" stroke="#CB1211" stroke-miterlimit="10"><path d="M12.777.402c-4.528-.05-8.652 3.12-8.703 7.646-.05 6.137 5.131 11.067 8.049 16.047.05.05.1.1.15.1-.05.252.202.503.453.352.201-.15.352-.352.503-.603.05-.05.05-.1.05-.151 3.37-4.125 7.294-9.256 7.697-14.638.302-4.628-3.27-8.702-8.2-8.753zm7.042 11.117c-.503 1.71-1.258 3.37-2.163 5.03 0 .05-.05.1-.05.1v.051a18.32 18.32 0 01-.805 1.308c0 .05-.05.1-.05.151-.353.604-.755 1.157-1.107 1.71 0 .05-.05.05-.05.1-.252.403-.554.755-.856 1.158 0 .05-.05.1-.1.1-.302.403-.604.755-.906 1.157 0 .05-.05.05-.05.1-.302.403-.654.806-.956 1.208-.05.05-.05.1-.05.201-.05.05-.1.05-.151.101v-.05c-1.861-4.175-5.332-7.445-6.992-11.67-2.012-5.131.15-10.614 6.187-11.218 1.962-.2 3.622.252 4.93 1.057.05.05.15.1.2.15.403.302.806.655 1.158.956v.05l.05.05c0 .001.05.001.05.051.403.453.755.906 1.006 1.409 0 0 0 .05.05.05l.051.05c1.006 1.962 1.258 4.326.604 6.64z"/><path d="M16.398 7.948c-.15-2.163-2.112-3.723-4.325-3.471-4.628.553-3.823 7.243-.05 7.696h.05c.402-.05.754-.1 1.156-.15h.201c1.862-.554 3.12-2.164 2.968-4.075zm-3.973 3.571c-.05 0-.05 0-.101.05-1.409-.402-2.565-1.308-2.867-2.817-.352-1.81 1.056-3.722 3.018-3.722 1.861 0 3.37 1.409 3.32 3.27-.05 1.81-1.61 2.968-3.37 3.22z"/></g><defs><clipPath id="clip0"><path fill="#fff" d="M0 0h25v25H0z"/></clipPath></defs></svg>